# xmcd CD database file
#
# Track frame offsets:
#	150
#	14938
#	30674
#	45930
#	61377
#	77243
#	97562
#	113814
#
# Disc length: 1770 seconds
#
# Revision: 0
# Processed by: cddbd v1.5.2PL0 Copyright (c) Steve Scherf et al.
# Submitted via: CDex 1.51
#
DISCID=5906e808
DTITLE=Jackson Taylor and The Sinners - Cantina Del Diablo
DYEAR=2015
DGENRE=Country
TTITLE0=Gypsies And Drifters
TTITLE1=If I Could Have It My Way
TTITLE2=Maria
TTITLE3=Old Lone Star
TTITLE4=Blue Agave
TTITLE5=Easy Lovin' Stranger
TTITLE6=Cocaine (Deliverance Mix)
TTITLE7=Easter Last Year
EXTD=YEAR: 2015
EXTT0=
EXTT1=
EXTT2=
EXTT3=
EXTT4=
EXTT5=
EXTT6=
EXTT7=
PLAYORDER=
